<?xml version="1.0" encoding="utf-8"?>
<!-- Generator: Adobe Illustrator 16.0.0, SVG Export Plug-In . SVG Version: 6.00 Build 0)  -->
<!DOCTYPE svg PUBLIC "-//W3C//DTD SVG 1.1//EN" "http://www.w3.org/Graphics/SVG/1.1/DTD/svg11.dtd">
<svg version="1.1" id="Layer_1" xmlns="http://www.w3.org/2000/svg" xmlns:xlink="http://www.w3.org/1999/xlink" x="0px" y="0px"
	 width="120px" height="120px" viewBox="0 0 720 720" enable-background="new 0 0 720 720" xml:space="preserve">
<path stroke="#000000" stroke-miterlimit="10" d="M684,671.533c0,6.885-5.812,12.467-12.978,12.467H48.979
	C41.811,684,36,678.418,36,671.533V48.467C36,41.582,41.811,36,48.979,36h622.044C678.188,36,684,41.582,684,48.467V671.533z"/>
<g>
	<path fill="#FFFFFF" stroke="#FFFFFF" stroke-miterlimit="10" d="M445.854,200.135v437.84c0,5.533-5.819,10.024-13.004,10.024
		H287.151c-7.186,0-13.005-4.491-13.005-10.024v-437.84c0-5.541,5.819-10.024,13.005-10.024H432.85
		C440.034,190.111,445.854,194.594,445.854,200.135z"/>
	<path fill="#FFFFFF" stroke="#FFFFFF" stroke-miterlimit="10" d="M388.617,190.907v44.699c0,5.271-2.925,9.539-6.542,9.539h-44.151
		c-3.616,0-6.542-4.268-6.542-9.539v-44.699H388.617z"/>
	
		<line fill="none" stroke="#FFFFFF" stroke-linecap="round" stroke-miterlimit="10" x1="287.954" y1="190.907" x2="287.151" y2="191.734"/>
	<path fill="#FFFFFF" stroke="#FFFFFF" stroke-linecap="round" stroke-miterlimit="10" d="M439.607,190.111H282.384l48.059-49.334
		v-58.22c0-5.833,3.237-10.557,7.24-10.557h48.859c4.003,0,7.239,4.724,7.239,10.557v60.516L439.607,190.111z"/>
	
		<line fill="none" stroke="#FFFFFF" stroke-linecap="round" stroke-miterlimit="10" x1="430.829" y1="191.734" x2="430.026" y2="190.907"/>
	
		<line fill="none" stroke="#FFFFFF" stroke-linecap="round" stroke-miterlimit="10" x1="388.617" y1="148.401" x2="386.599" y2="146.327"/>
	<path fill="#FFFFFF" stroke="#FFFFFF" stroke-linecap="round" stroke-miterlimit="10" d="M404.719,117.413
		c0,3.856-2.474,6.983-5.525,6.983h-74.803c-3.052,0-5.526-3.126-5.526-6.983l0,0c0-3.857,2.474-6.983,5.526-6.983h74.803
		C402.245,110.43,404.719,113.556,404.719,117.413L404.719,117.413z"/>
	<path fill="#FFFFFF" stroke="#FFFFFF" stroke-miterlimit="10" d="M451.578,633.389c0,7.917-2.186,14.335-4.878,14.335H273.3
		c-2.694,0-4.877-6.418-4.877-14.335l0,0c0-7.918,2.184-14.334,4.877-14.334h173.4C449.393,619.055,451.578,625.471,451.578,633.389
		L451.578,633.389z"/>
	<path fill="#FFFFFF" stroke="#FFFFFF" stroke-miterlimit="10" d="M451.578,579.019c0,7.919-2.186,14.335-4.878,14.335H273.3
		c-2.694,0-4.877-6.416-4.877-14.335l0,0c0-7.916,2.184-14.334,4.877-14.334h173.4C449.393,564.685,451.578,571.103,451.578,579.019
		L451.578,579.019z"/>
	<path fill="#FFFFFF" stroke="#FFFFFF" stroke-miterlimit="10" d="M451.578,524.65c0,7.915-2.186,14.335-4.878,14.335H273.3
		c-2.694,0-4.877-6.42-4.877-14.335l0,0c0-7.917,2.184-14.337,4.877-14.337h173.4C449.393,510.313,451.578,516.733,451.578,524.65
		L451.578,524.65z"/>
	<path fill="#FFFFFF" stroke="#FFFFFF" stroke-miterlimit="10" d="M451.578,470.279c0,7.918-2.186,14.337-4.878,14.337H273.3
		c-2.694,0-4.877-6.419-4.877-14.337l0,0c0-7.914,2.184-14.334,4.877-14.334h173.4C449.393,455.945,451.578,462.365,451.578,470.279
		L451.578,470.279z"/>
	<path fill="#FFFFFF" stroke="#FFFFFF" stroke-miterlimit="10" d="M451.578,415.911c0,7.917-2.186,14.337-4.878,14.337H273.3
		c-2.694,0-4.877-6.42-4.877-14.337l0,0c0-7.916,2.184-14.333,4.877-14.333h173.4C449.393,401.578,451.578,407.995,451.578,415.911
		L451.578,415.911z"/>
	<path fill="#FFFFFF" stroke="#FFFFFF" stroke-miterlimit="10" d="M451.578,361.542c0,7.918-2.186,14.338-4.878,14.338H273.3
		c-2.694,0-4.877-6.42-4.877-14.338l0,0c0-7.916,2.184-14.333,4.877-14.333h173.4C449.393,347.208,451.578,353.626,451.578,361.542
		L451.578,361.542z"/>
	<path fill="#FFFFFF" stroke="#FFFFFF" stroke-miterlimit="10" d="M451.578,307.173c0,7.918-2.186,14.335-4.878,14.335H273.3
		c-2.694,0-4.877-6.417-4.877-14.335l0,0c0-7.916,2.184-14.333,4.877-14.333h173.4C449.393,292.84,451.578,299.258,451.578,307.173
		L451.578,307.173z"/>
	<path fill="#FFFFFF" stroke="#FFFFFF" stroke-miterlimit="10" d="M451.578,252.805c0,7.917-2.186,14.335-4.878,14.335H273.3
		c-2.694,0-4.877-6.418-4.877-14.335l0,0c0-7.917,2.184-14.335,4.877-14.335h173.4C449.393,238.47,451.578,244.888,451.578,252.805
		L451.578,252.805z"/>
	<path fill="#FFFFFF" stroke="#FFFFFF" stroke-miterlimit="10" d="M451.578,211.427c0,7.917-2.186,14.335-4.878,14.335H273.3
		c-2.694,0-4.877-6.418-4.877-14.335l0,0c0-7.917,2.184-14.334,4.877-14.334h173.4C449.393,197.093,451.578,203.511,451.578,211.427
		L451.578,211.427z"/>
</g>
</svg>
